<?xml version="1.0" encoding="utf-8" ?>
<svg xmlns="http://www.w3.org/2000/svg" xmlns:xlink="http://www.w3.org/1999/xlink" width="1024" height="1024">
	<path fill="#252526" d="M0 0L1024 0L1024 1024L0 1024L0 0Z"/>
	<path fill="#0098FF" d="M192.79 671C188.16 678.973 181.975 686.406 173.781 690.882Q172.914 691.352 172.025 691.779Q171.136 692.206 170.227 692.589Q169.318 692.972 168.392 693.31Q167.465 693.649 166.524 693.942Q165.582 694.235 164.627 694.482Q163.672 694.729 162.706 694.929Q161.741 695.129 160.766 695.282Q159.792 695.435 158.811 695.54Q157.831 695.645 156.846 695.703Q155.862 695.76 154.875 695.77Q153.889 695.779 152.904 695.741Q151.918 695.702 150.936 695.616Q149.953 695.529 148.976 695.395Q147.999 695.261 147.029 695.079Q146.06 694.898 145.101 694.669Q144.141 694.441 143.194 694.166Q142.248 693.89 141.317 693.566Q140.386 693.242 139.473 692.872Q138.559 692.502 137.665 692.087Q136.772 691.671 135.9 691.211Q135.028 690.751 134.181 690.248Q133.333 689.745 132.512 689.2Q131.691 688.655 130.899 688.069Q130.106 687.483 129.344 686.858Q128.582 686.233 127.852 685.57Q127.123 684.908 126.427 684.209Q125.732 683.511 125.072 682.779Q124.413 682.046 123.791 681.281Q123.17 680.517 122.587 679.721Q122.005 678.926 121.463 678.103Q120.921 677.28 120.422 676.43Q119.922 675.581 119.466 674.707Q118.975 673.804 118.53 672.878Q118.085 671.952 117.687 671.004Q117.29 670.057 116.94 669.09Q116.59 668.124 116.289 667.141Q115.989 666.159 115.738 665.162Q115.487 664.166 115.286 663.158Q115.086 662.15 114.936 661.133Q114.787 660.117 114.688 659.094Q114.59 658.071 114.543 657.044Q114.496 656.018 114.501 654.99Q114.506 653.962 114.562 652.936Q114.619 651.91 114.727 650.888Q114.835 649.866 114.994 648.851Q115.153 647.836 115.363 646.83Q115.573 645.824 115.834 644.83Q116.094 643.836 116.404 642.856Q116.716 641.874 117.076 640.908Q117.436 639.943 117.843 638.997Q118.251 638.05 118.705 637.125Q119.159 636.2 119.659 635.299Q120.158 634.398 120.702 633.523Q121.245 632.647 121.832 631.8Q122.418 630.953 123.046 630.136Q123.674 629.319 124.342 628.534Q125.009 627.749 125.715 626.998Q126.421 626.248 127.163 625.533Q127.906 624.818 128.683 624.142Q129.46 623.465 130.269 622.827Q131.079 622.19 131.919 621.593Q132.759 620.997 133.628 620.443Q134.497 619.889 135.392 619.379Q136.287 618.869 137.207 618.404C146.83 613.448 157.951 612.938 168.208 616.26C178.942 619.737 187.553 627.901 192.668 637.826C248.556 637.923 304.51 637.323 360.389 638.093Q360.288 654.558 360.437 671.022Q276.614 671.535 192.79 671Z"/>
	<path fill="#0098FF" d="M193.843 384.78C188.64 392.9 182.683 400.185 174.091 404.863C164.643 410.009 153.81 410.917 143.544 407.768C132.696 404.44 124.317 396.769 119.07 386.809C114.056 377.293 112.951 366.734 116.225 356.443Q116.544 355.444 116.911 354.462Q117.278 353.48 117.694 352.518Q118.109 351.555 118.572 350.615Q119.034 349.674 119.543 348.757Q120.051 347.84 120.604 346.949Q121.157 346.058 121.753 345.196Q122.349 344.334 122.987 343.502Q123.625 342.67 124.304 341.871Q124.982 341.071 125.699 340.306Q126.416 339.541 127.17 338.813Q127.923 338.084 128.712 337.394Q129.501 336.703 130.323 336.052Q131.145 335.402 131.998 334.792Q132.851 334.183 133.733 333.616Q134.615 333.05 135.524 332.527Q136.433 332.005 137.367 331.528Q138.242 331.077 139.139 330.671Q140.036 330.264 140.952 329.903Q141.867 329.541 142.8 329.225Q143.733 328.91 144.68 328.641Q145.627 328.372 146.586 328.15Q147.546 327.928 148.515 327.755Q149.484 327.581 150.46 327.456Q151.437 327.33 152.419 327.253Q153.4 327.177 154.384 327.148Q155.369 327.121 156.353 327.141Q157.337 327.162 158.32 327.232Q159.302 327.302 160.279 327.42Q161.257 327.539 162.227 327.705Q163.197 327.872 164.158 328.087Q165.119 328.302 166.068 328.564Q167.017 328.826 167.952 329.135C178.823 332.756 187.379 340.418 192.541 350.567C212.809 350.289 233.112 350.553 253.385 350.553L360.08 350.611C360.065 361.898 359.441 373.583 360.316 384.827L193.843 384.78Z"/>
	<path fill="#0098FF" d="M831.146 352.94C834.672 343.803 841.985 337.214 850.826 333.237C860.691 328.798 872.68 328.106 882.797 332.112C893.197 336.231 901.477 345.495 905.732 355.705C909.895 365.695 910.142 376.613 905.965 386.635C901.674 396.931 893.079 405.967 882.706 410.229C873.701 413.929 861.533 414.051 852.511 410.305C842.467 406.135 835.091 397.364 830.343 387.893L730.45 388.011C708.163 388.042 685.76 388.559 663.484 388.084L663.418 352.709Q747.283 352.076 831.146 352.94Z"/>
	<path fill="#F2F2F2" d="M465.74 222.019C476.246 233.767 488.372 243.967 498.931 255.605C489.97 265.976 479.295 275.467 469.598 285.19L412.244 342.617C404.882 350.024 397.272 357.185 390.089 364.768C399.668 375.873 410.751 385.951 421.156 396.284Q445.427 420.309 469.381 444.65Q477.948 453.206 486.412 461.863C489.301 464.811 492.539 467.64 495.044 470.914L495.083 554.254Q457.14 592.113 419.63 630.401C410.252 639.997 399.828 649.064 390.952 659.058C417.785 687.68 446.002 714.893 473.581 742.784C482.123 751.424 491.286 759.736 499.457 768.696C494.304 774.947 488.146 780.6 482.419 786.344C476.966 791.814 471.598 797.699 465.681 802.661C449.102 787.945 434.243 771.414 418.487 755.849L382.843 720.267C375.494 712.97 367.624 705.837 360.776 698.084C360.348 689.079 360.464 680.035 360.437 671.022Q360.288 654.557 360.389 638.093L360.341 526.255C337.923 527.103 315.326 526.698 292.887 526.657L193.78 526.541C189.783 534.093 185.187 540.114 178.018 544.936C169.289 550.807 158.498 553.333 148.138 551.148Q147.095 550.93 146.065 550.661Q145.034 550.392 144.018 550.071Q143.002 549.751 142.003 549.381Q141.004 549.011 140.025 548.592Q139.045 548.173 138.088 547.705Q137.131 547.238 136.198 546.724Q135.265 546.209 134.358 545.65Q133.452 545.09 132.575 544.486Q131.697 543.881 130.851 543.234Q130.005 542.587 129.192 541.899Q128.379 541.211 127.601 540.483Q126.823 539.756 126.082 538.99Q125.341 538.225 124.639 537.424Q123.937 536.622 123.275 535.787Q122.614 534.952 121.995 534.085Q121.375 533.219 120.8 532.322Q120.277 531.514 119.795 530.68Q119.313 529.847 118.873 528.991Q118.433 528.135 118.035 527.258Q117.637 526.382 117.283 525.487Q116.929 524.592 116.619 523.68Q116.31 522.769 116.046 521.843Q115.781 520.917 115.563 519.98Q115.345 519.042 115.173 518.095Q115.001 517.148 114.876 516.193Q114.751 515.239 114.673 514.279Q114.595 513.32 114.564 512.358Q114.534 511.396 114.551 510.433Q114.567 509.471 114.632 508.51Q114.696 507.55 114.808 506.594Q114.919 505.638 115.077 504.688Q115.236 503.739 115.441 502.798Q115.663 501.763 115.937 500.741Q116.211 499.719 116.537 498.712Q116.863 497.704 117.239 496.715Q117.615 495.726 118.041 494.757Q118.467 493.788 118.941 492.842Q119.416 491.896 119.937 490.975Q120.459 490.054 121.027 489.16Q121.594 488.267 122.206 487.404Q122.818 486.54 123.474 485.709Q124.129 484.878 124.825 484.081Q125.521 483.284 126.257 482.523Q126.993 481.762 127.767 481.04Q128.54 480.317 129.349 479.635Q130.158 478.952 131.001 478.312Q131.843 477.671 132.717 477.074Q133.591 476.477 134.494 475.925C143.705 470.211 154.343 468.42 164.865 470.943C177.965 474.084 186.5 482.289 193.398 493.488C208.849 493.918 224.393 493.571 239.856 493.6L360.448 493.824C360.765 457.56 361.09 421.074 360.316 384.827C359.441 373.583 360.065 361.898 360.08 350.611Q360.072 338.903 360.488 327.203C380.422 308.227 399.501 288.275 419.051 268.894C434.671 253.41 451.159 238.492 465.74 222.019Z"/>
	<path fill="#252526" d="M427.697 484.787C437.401 494.831 447.312 504.645 456.913 514.796C446.867 524.49 437.298 534.859 427.757 545.052L398.055 515.263C408.033 505.223 417.38 494.475 427.697 484.787Z"/>
	<path fill="#F2F2F2" d="M557.67 222.733C564.696 228.992 571.254 235.959 577.959 242.569Q600.287 264.334 622.029 286.686C635.678 300.466 650.593 313.636 663.414 328.139L663.418 352.709L663.484 388.084L663.542 498.197L758.33 498.338C782.392 498.371 806.503 498.054 830.558 498.592C835.104 489.213 841.83 481.434 851.402 476.95Q852.302 476.537 853.222 476.169Q854.141 475.801 855.077 475.478Q856.014 475.156 856.965 474.879Q857.916 474.603 858.879 474.373Q859.843 474.144 860.816 473.962Q861.79 473.78 862.771 473.646Q863.752 473.512 864.739 473.426Q865.726 473.341 866.715 473.303Q867.705 473.266 868.695 473.277Q869.686 473.288 870.674 473.348Q871.663 473.408 872.647 473.516Q873.632 473.624 874.61 473.781Q875.588 473.937 876.557 474.141Q877.526 474.345 878.484 474.596Q879.442 474.847 880.387 475.145Q881.331 475.443 882.26 475.787C892.311 479.594 900.699 488.501 905.07 498.191C909.483 507.974 909.532 518.903 905.669 528.864C901.503 539.605 894.166 547.827 883.539 552.512C874.598 556.454 863.601 556.883 854.471 553.315C844.252 549.323 836.482 541.871 832.043 531.92C775.899 532.556 719.718 531.816 663.569 531.864L663.686 642.483L830.197 642.438C834.713 634.119 840.032 627.061 848.24 622.08C857.246 616.614 866.867 614.565 877.151 617.138C888.029 619.861 897.518 626.528 903.202 636.247Q903.729 637.138 904.21 638.055Q904.691 638.972 905.125 639.911Q905.56 640.851 905.947 641.811Q906.334 642.771 906.673 643.75Q907.011 644.728 907.3 645.722Q907.589 646.717 907.828 647.724Q908.067 648.731 908.255 649.749Q908.443 650.767 908.58 651.794Q908.716 652.82 908.802 653.852Q908.887 654.883 908.92 655.918Q908.954 656.953 908.935 657.988Q908.917 659.023 908.847 660.056Q908.776 661.089 908.654 662.117Q908.532 663.145 908.359 664.166Q908.186 665.186 907.962 666.197Q907.738 667.208 907.463 668.206C904.34 679.506 897.14 688.046 886.92 693.676C877.888 698.651 867.807 699.945 857.897 696.97C846.512 693.552 837.486 685.702 831.941 675.303C775.902 674.189 719.701 675.266 663.642 675.194L663.478 697.773C642.802 719.049 621.317 739.475 600.539 760.638L573.875 787.854C568.826 792.988 563.729 798.938 557.871 803.137C552.583 798.416 547.707 793.085 542.723 788.039C536.655 781.897 530.419 775.902 524.758 769.377C535.672 756.169 551.143 742.044 563.463 729.75L632.951 660.194C607.245 635.419 582.49 609.509 557.306 584.193C547.926 574.764 538.961 564.871 529.141 555.895C528.654 545.216 528.959 534.421 528.963 523.734L529.105 469.964C536.554 462.924 543.544 455.376 550.815 448.149C578.717 420.413 605.975 391.984 634.252 364.631C621.142 350.944 607.365 337.798 593.861 324.495L554.86 285.375C545.013 275.464 534.902 265.73 525.584 255.314C529.652 249.793 535.061 244.899 539.954 240.105Q548.747 231.353 557.67 222.733Z"/>
	<path fill="#252526" d="M594.998 484.796C596.671 485.175 622.609 512.007 626.242 515.539C616.522 526.142 605.639 535.642 595.998 546.326C593.334 544.758 569.401 519.639 564.942 515.16C574.756 504.889 584.633 494.512 594.998 484.796Z"/>
</svg>
